# xmcd
#
# Track frame offsets: 
#        150
#        24273
#        49983
#        71523
#
# Disc length: 1360 seconds
#
# Revision: 0
# Processed by: cddbd v1.5.2PL0 Copyright (c) Steve Scherf et al.
# Submitted via: ExactAudioCopy v1.2
#
DISCID=2d054e04
DTITLE=Blues Company - Old, New, Borrowed But Blues: Encores [40th Jub
DTITLE=ilee Concert]
DYEAR=2016
DGENRE=Blues
TTITLE0=Let's Work Together
TTITLE1=Honky Tonk Woman
TTITLE2=Fool
TTITLE3=The Blues Is Alright
EXTD=
EXTT0=
EXTT1=
EXTT2=
EXTT3=
PLAYORDER=
